<?xml version="1.0" standalone="no"?>
<!DOCTYPE svg PUBLIC "-//W3C//DTD SVG 20010904//EN"
 "http://www.w3.org/TR/2001/REC-SVG-20010904/DTD/svg10.dtd">
<svg version="1.0" xmlns="http://www.w3.org/2000/svg"
 width="512.000000pt" height="512.000000pt" viewBox="0 0 512.000000 512.000000"
 preserveAspectRatio="xMidYMid meet">
<metadata>
Created by potrace 1.14, written by Peter Selinger 2001-2017
</metadata>
<g transform="translate(0.000000,512.000000) scale(0.100000,-0.100000)"
fill="#000000" stroke="none">
<path d="M0 2560 l0 -2560 2560 0 2560 0 0 2560 0 2560 -2560 0 -2560 0 0
-2560z m1220 -20 l0 -2420 -225 0 -225 0 0 1698 c-1 933 -2 2022 -3 2420 l-3
722 228 0 228 0 0 -2420z m1976 -10 l-1 -2430 -52 0 -53 0 0 2430 0 2430 54 0
53 0 -1 -2430z m498 952 c4 -812 4 -1901 0 -2418 l-7 -941 -233 -9 -233 -9 27
28 c15 16 43 38 62 49 60 36 60 36 60 228 l0 177 -37 24 c-97 62 -96 209 0
255 l34 16 5 442 c3 242 3 827 0 1299 l-5 857 77 0 c68 0 80 3 101 25 l25 24
0 327 c0 323 0 328 -22 351 -19 20 -31 23 -100 23 l-78 0 0 286 0 286 -26 21
c-15 12 -51 45 -82 72 l-54 50 68 6 c38 3 146 6 240 7 l171 2 7 -1478z m666
1418 l0 -60 -32 0 c-44 -1 -109 -31 -142 -66 -49 -53 -58 -112 -55 -350 4
-230 -1 -256 -40 -220 -19 17 -20 34 -23 294 -2 210 -6 276 -16 280 -6 2 -10
8 -6 13 8 14 -33 75 -66 99 -22 16 -44 20 -99 20 -69 0 -71 1 -71 25 l0 25
275 0 275 0 0 -60z m-359 -37 c13 -16 12 -17 -3 -4 -17 13 -22 21 -14 21 2 0
10 -8 17 -17z m-531 -1008 l0 -325 -80 0 c-95 0 -133 15 -149 61 -17 48 -14
507 3 538 21 39 54 50 144 51 l82 0 0 -325z m-2973 305 c17 -6 35 -22 42 -36
15 -33 15 -557 1 -585 -9 -17 -22 -19 -98 -19 -48 0 -97 3 -110 6 l-22 6 2
312 3 311 40 6 c66 10 110 10 142 -1z m4307 0 l26 -10 -2 -297 -3 -298 -115 0
-115 0 -3 285 c-1 157 0 295 3 308 5 21 10 22 95 22 49 0 100 -4 114 -10z
m-604 -20 c8 -4 21 -5 28 -3 7 3 12 1 11 -4 -3 -19 2 -34 10 -29 6 4 10 -97
10 -249 0 -215 -2 -257 -14 -262 -8 -3 -15 -11 -15 -18 0 -21 -24 -25 -128
-22 -90 2 -101 5 -124 28 -34 34 -46 95 -52 266 -4 108 -2 150 8 174 14 33 14
32 20 -46 11 -126 13 -128 15 -9 1 98 4 115 24 145 17 26 32 35 62 40 43 7
121 1 145 -11z m-2110 -326 l0 -235 -185 3 c-134 2 -188 7 -197 16 -14 14 -25
332 -13 410 l6 42 195 0 194 0 0 -236z m2257 -331 c-2 -21 -4 -6 -4 32 0 39 2
55 4 38 2 -18 2 -50 0 -70z m-217 -1284 l0 -1279 -29 2 c-21 1 -27 6 -23 17 3
8 1 12 -4 9 -5 -4 -8 491 -7 1260 3 1198 4 1267 20 1273 45 16 43 63 43 -1282z
m-2027 835 c30 -6 37 -11 37 -30 l0 -24 298 -2 297 -3 0 -85 0 -85 -137 -3
-138 -3 0 -274 0 -274 138 -3 137 -3 0 -85 0 -85 -368 -3 c-311 -2 -378 0
-430 14 -98 25 -164 62 -238 131 -112 106 -156 220 -146 383 8 143 62 246 174
335 68 53 144 85 228 95 84 10 105 11 148 4z m2244 -2121 c-3 -10 -5 -2 -5 17
0 19 2 27 5 18 2 -10 2 -26 0 -35z m-2207 -160 l0 -198 -211 1 c-146 1 -214 5
-222 13 -14 14 -22 226 -12 319 l7 62 219 0 219 0 0 -197z m1978 120 c-10 -2
-26 -2 -35 0 -10 3 -2 5 17 5 19 0 27 -2 18 -5z m45 -38 c18 -9 25 -10 20 -2
-5 9 -3 9 9 0 8 -7 18 -10 21 -6 4 3 7 -1 7 -10 0 -9 3 -17 8 -17 4 0 12 -12
19 -26 9 -20 9 -23 -1 -15 -9 8 -11 2 -7 -27 4 -34 5 -35 12 -12 6 22 7 22 8
4 1 -27 11 -36 25 -24 8 6 12 2 13 -12 1 -12 8 -25 15 -30 8 -5 3 -7 -14 -4
-20 3 -28 0 -28 -10 0 -13 -18 -19 -49 -14 -12 1 -11 -3 2 -23 18 -28 7 -47
-26 -42 -9 2 -15 -1 -12 -5 3 -5 1 -11 -4 -14 -5 -4 -13 -1 -17 5 -13 22 -31
-45 -26 -97 2 -29 1 -73 -2 -99 -7 -43 -9 -46 -34 -43 l-27 3 -5 109 c-4 94
-8 110 -23 115 -21 8 -24 20 -7 31 9 5 8 9 -2 13 -9 3 -14 -3 -15 -15 -2 -28
-12 -35 -23 -18 -5 8 -17 15 -27 15 -10 0 -19 6 -19 13 -1 6 -2 17 -3 22 0 6
-8 10 -16 10 -33 0 -45 62 -18 95 14 18 15 18 9 2 -4 -13 -2 -17 6 -14 14 5
14 9 3 47 -7 24 -6 24 8 6 14 -19 15 -19 21 10 9 36 37 71 68 83 35 15 100 13
131 -4z m634 -7 c64 -31 90 -131 50 -192 -50 -75 -190 -77 -241 -4 -20 28 -21
110 -1 148 27 52 64 73 118 66 26 -3 59 -11 74 -18z m-4297 -1 c13 -7 35 -28
48 -47 43 -63 16 -157 -54 -186 -125 -52 -240 107 -146 201 45 45 102 57 152
32z m3847 -499 c-1 -95 -3 -18 -3 172 0 190 2 267 3 173 2 -95 2 -251 0 -345z"/>
<path d="M3957 3763 c-10 -16 -5 -75 6 -64 5 5 7 24 5 42 -2 21 -6 29 -11 22z"/>
<path d="M4227 657 c-9 -23 8 -30 24 -10 8 9 9 14 2 10 -6 -4 -13 -2 -15 5 -3
8 -7 6 -11 -5z"/>
<path d="M3980 585 c13 -14 26 -23 28 -20 5 5 -36 45 -46 45 -3 0 5 -11 18
-25z"/>
</g>
</svg>
